<svg id="visual" viewBox="0 0 960 150" width="960" height="150" xmlns="http://www.w3.org/2000/svg" xmlns:xlink="http://www.w3.org/1999/xlink" version="1.1"><rect x="0" y="0" width="960" height="150" fill="#ffffff"></rect><path d="M0 66L6 71.7C12 77.3 24 88.7 35.8 87.7C47.7 86.7 59.3 73.3 71.2 63.2C83 53 95 46 106.8 47.2C118.7 48.3 130.3 57.7 142.2 67.7C154 77.7 166 88.3 177.8 94.7C189.7 101 201.3 103 213.2 100.7C225 98.3 237 91.7 248.8 91C260.7 90.3 272.3 95.7 284.2 88.3C296 81 308 61 320 51.3C332 41.7 344 42.3 355.8 54C367.7 65.7 379.3 88.3 391.2 99C403 109.7 415 108.3 426.8 100.8C438.7 93.3 450.3 79.7 462.2 69.2C474 58.7 486 51.3 497.8 52.2C509.7 53 521.3 62 533.2 62C545 62 557 53 568.8 47.3C580.7 41.7 592.3 39.3 604.2 38.3C616 37.3 628 37.7 640 40.8C652 44 664 50 675.8 61.7C687.7 73.3 699.3 90.7 711.2 99.8C723 109 735 110 746.8 104.2C758.7 98.3 770.3 85.7 782.2 80.5C794 75.3 806 77.7 817.8 81C829.7 84.3 841.3 88.7 853.2 83.2C865 77.7 877 62.3 888.8 61.5C900.7 60.7 912.3 74.3 924.2 73.5C936 72.7 948 57.3 954 49.7L960 42L960 151L954 151C948 151 936 151 924.2 151C912.3 151 900.7 151 888.8 151C877 151 865 151 853.2 151C841.3 151 829.7 151 817.8 151C806 151 794 151 782.2 151C770.3 151 758.7 151 746.8 151C735 151 723 151 711.2 151C699.3 151 687.7 151 675.8 151C664 151 652 151 640 151C628 151 616 151 604.2 151C592.3 151 580.7 151 568.8 151C557 151 545 151 533.2 151C521.3 151 509.7 151 497.8 151C486 151 474 151 462.2 151C450.3 151 438.7 151 426.8 151C415 151 403 151 391.2 151C379.3 151 367.7 151 355.8 151C344 151 332 151 320 151C308 151 296 151 284.2 151C272.3 151 260.7 151 248.8 151C237 151 225 151 213.2 151C201.3 151 189.7 151 177.8 151C166 151 154 151 142.2 151C130.3 151 118.7 151 106.8 151C95 151 83 151 71.2 151C59.3 151 47.7 151 35.8 151C24 151 12 151 6 151L0 151Z" fill="#FA7268" stroke-linecap="round" stroke-linejoin="miter"></path></svg>