<svg id="visual" viewBox="0 0 960 120" width="960" height="120" xmlns="http://www.w3.org/2000/svg" xmlns:xlink="http://www.w3.org/1999/xlink" version="1.1"><path d="M0 71L10.7 69.3C21.3 67.7 42.7 64.3 64 65.5C85.3 66.7 106.7 72.3 128 73.2C149.3 74 170.7 70 192 67.8C213.3 65.7 234.7 65.3 256 64.7C277.3 64 298.7 63 320 61.3C341.3 59.7 362.7 57.3 384 55.5C405.3 53.7 426.7 52.3 448 55.7C469.3 59 490.7 67 512 68.7C533.3 70.3 554.7 65.7 576 65.2C597.3 64.7 618.7 68.3 640 70.7C661.3 73 682.7 74 704 73C725.3 72 746.7 69 768 67.5C789.3 66 810.7 66 832 65.8C853.3 65.7 874.7 65.3 896 63.8C917.3 62.3 938.7 59.7 949.3 58.3L960 57L960 121L949.3 121C938.7 121 917.3 121 896 121C874.7 121 853.3 121 832 121C810.7 121 789.3 121 768 121C746.7 121 725.3 121 704 121C682.7 121 661.3 121 640 121C618.7 121 597.3 121 576 121C554.7 121 533.3 121 512 121C490.7 121 469.3 121 448 121C426.7 121 405.3 121 384 121C362.7 121 341.3 121 320 121C298.7 121 277.3 121 256 121C234.7 121 213.3 121 192 121C170.7 121 149.3 121 128 121C106.7 121 85.3 121 64 121C42.7 121 21.3 121 10.7 121L0 121Z" fill="#141414"></path><path d="M0 71L10.7 72.5C21.3 74 42.7 77 64 76.8C85.3 76.7 106.7 73.3 128 75.2C149.3 77 170.7 84 192 83.8C213.3 83.7 234.7 76.3 256 75.3C277.3 74.3 298.7 79.7 320 83.5C341.3 87.3 362.7 89.7 384 87.3C405.3 85 426.7 78 448 74.5C469.3 71 490.7 71 512 73.2C533.3 75.3 554.7 79.7 576 82C597.3 84.3 618.7 84.7 640 82.7C661.3 80.7 682.7 76.3 704 77.3C725.3 78.3 746.7 84.7 768 85.3C789.3 86 810.7 81 832 79C853.3 77 874.7 78 896 78.7C917.3 79.3 938.7 79.7 949.3 79.8L960 80L960 121L949.3 121C938.7 121 917.3 121 896 121C874.7 121 853.3 121 832 121C810.7 121 789.3 121 768 121C746.7 121 725.3 121 704 121C682.7 121 661.3 121 640 121C618.7 121 597.3 121 576 121C554.7 121 533.3 121 512 121C490.7 121 469.3 121 448 121C426.7 121 405.3 121 384 121C362.7 121 341.3 121 320 121C298.7 121 277.3 121 256 121C234.7 121 213.3 121 192 121C170.7 121 149.3 121 128 121C106.7 121 85.3 121 64 121C42.7 121 21.3 121 10.7 121L0 121Z" fill="#1d1d1d"></path><path d="M0 88L10.7 90.5C21.3 93 42.7 98 64 98.3C85.3 98.7 106.7 94.3 128 93.2C149.3 92 170.7 94 192 94.8C213.3 95.7 234.7 95.3 256 94.3C277.3 93.3 298.7 91.7 320 93C341.3 94.3 362.7 98.7 384 97.3C405.3 96 426.7 89 448 89C469.3 89 490.7 96 512 95.5C533.3 95 554.7 87 576 83.7C597.3 80.3 618.7 81.7 640 84.7C661.3 87.7 682.7 92.3 704 92.2C725.3 92 746.7 87 768 87.8C789.3 88.7 810.7 95.3 832 97.3C853.3 99.3 874.7 96.7 896 95.5C917.3 94.3 938.7 94.7 949.3 94.8L960 95L960 121L949.3 121C938.7 121 917.3 121 896 121C874.7 121 853.3 121 832 121C810.7 121 789.3 121 768 121C746.7 121 725.3 121 704 121C682.7 121 661.3 121 640 121C618.7 121 597.3 121 576 121C554.7 121 533.3 121 512 121C490.7 121 469.3 121 448 121C426.7 121 405.3 121 384 121C362.7 121 341.3 121 320 121C298.7 121 277.3 121 256 121C234.7 121 213.3 121 192 121C170.7 121 149.3 121 128 121C106.7 121 85.3 121 64 121C42.7 121 21.3 121 10.7 121L0 121Z" fill="#272727"></path><path d="M0 108L10.7 107.8C21.3 107.7 42.7 107.3 64 108.7C85.3 110 106.7 113 128 111.3C149.3 109.7 170.7 103.3 192 102.8C213.3 102.3 234.7 107.7 256 109.7C277.3 111.7 298.7 110.3 320 109.7C341.3 109 362.7 109 384 106.5C405.3 104 426.7 99 448 99C469.3 99 490.7 104 512 105.7C533.3 107.3 554.7 105.7 576 104.5C597.3 103.3 618.7 102.7 640 104.5C661.3 106.3 682.7 110.7 704 109.7C725.3 108.7 746.7 102.3 768 102.3C789.3 102.3 810.7 108.7 832 108.3C853.3 108 874.7 101 896 99.7C917.3 98.3 938.7 102.7 949.3 104.8L960 107L960 121L949.3 121C938.7 121 917.3 121 896 121C874.7 121 853.3 121 832 121C810.7 121 789.3 121 768 121C746.7 121 725.3 121 704 121C682.7 121 661.3 121 640 121C618.7 121 597.3 121 576 121C554.7 121 533.3 121 512 121C490.7 121 469.3 121 448 121C426.7 121 405.3 121 384 121C362.7 121 341.3 121 320 121C298.7 121 277.3 121 256 121C234.7 121 213.3 121 192 121C170.7 121 149.3 121 128 121C106.7 121 85.3 121 64 121C42.7 121 21.3 121 10.7 121L0 121Z" fill="#303030"></path></svg>