<svg id="visual" viewBox="0 0 900 120" width="900" height="120" xmlns="http://www.w3.org/2000/svg" xmlns:xlink="http://www.w3.org/1999/xlink" version="1.1"><path d="M0 70L9.3 72.7C18.7 75.3 37.3 80.7 56.2 81C75 81.3 94 76.7 112.8 73.5C131.7 70.3 150.3 68.7 169 69C187.7 69.3 206.3 71.7 225 76C243.7 80.3 262.3 86.7 281.2 89.7C300 92.7 319 92.3 337.8 89C356.7 85.7 375.3 79.3 394 79.7C412.7 80 431.3 87 450 90.3C468.7 93.7 487.3 93.3 506.2 91.7C525 90 544 87 562.8 84.8C581.7 82.7 600.3 81.3 619 80.7C637.7 80 656.3 80 675 79.7C693.7 79.3 712.3 78.7 731.2 80.8C750 83 769 88 787.8 87.3C806.7 86.7 825.3 80.3 844 75.5C862.7 70.7 881.3 67.3 890.7 65.7L900 64L900 121L890.7 121C881.3 121 862.7 121 844 121C825.3 121 806.7 121 787.8 121C769 121 750 121 731.2 121C712.3 121 693.7 121 675 121C656.3 121 637.7 121 619 121C600.3 121 581.7 121 562.8 121C544 121 525 121 506.2 121C487.3 121 468.7 121 450 121C431.3 121 412.7 121 394 121C375.3 121 356.7 121 337.8 121C319 121 300 121 281.2 121C262.3 121 243.7 121 225 121C206.3 121 187.7 121 169 121C150.3 121 131.7 121 112.8 121C94 121 75 121 56.2 121C37.3 121 18.7 121 9.3 121L0 121Z" fill="#af0c4d"></path><path d="M0 97L9.3 97.8C18.7 98.7 37.3 100.3 56.2 101.5C75 102.7 94 103.3 112.8 100.8C131.7 98.3 150.3 92.7 169 91.3C187.7 90 206.3 93 225 93.2C243.7 93.3 262.3 90.7 281.2 87.8C300 85 319 82 337.8 83.2C356.7 84.3 375.3 89.7 394 93.2C412.7 96.7 431.3 98.3 450 98C468.7 97.7 487.3 95.3 506.2 93.7C525 92 544 91 562.8 92.3C581.7 93.7 600.3 97.3 619 98.5C637.7 99.7 656.3 98.3 675 96.2C693.7 94 712.3 91 731.2 92C750 93 769 98 787.8 100.7C806.7 103.3 825.3 103.7 844 101.3C862.7 99 881.3 94 890.7 91.5L900 89L900 121L890.7 121C881.3 121 862.7 121 844 121C825.3 121 806.7 121 787.8 121C769 121 750 121 731.2 121C712.3 121 693.7 121 675 121C656.3 121 637.7 121 619 121C600.3 121 581.7 121 562.8 121C544 121 525 121 506.2 121C487.3 121 468.7 121 450 121C431.3 121 412.7 121 394 121C375.3 121 356.7 121 337.8 121C319 121 300 121 281.2 121C262.3 121 243.7 121 225 121C206.3 121 187.7 121 169 121C150.3 121 131.7 121 112.8 121C94 121 75 121 56.2 121C37.3 121 18.7 121 9.3 121L0 121Z" fill="#462b5a"></path><path d="M0 96L9.3 96C18.7 96 37.3 96 56.2 96.2C75 96.3 94 96.7 112.8 99.3C131.7 102 150.3 107 169 106.8C187.7 106.7 206.3 101.3 225 98.7C243.7 96 262.3 96 281.2 95.5C300 95 319 94 337.8 94.8C356.7 95.7 375.3 98.3 394 101.8C412.7 105.3 431.3 109.7 450 110.3C468.7 111 487.3 108 506.2 106.3C525 104.7 544 104.3 562.8 104.5C581.7 104.7 600.3 105.3 619 105.3C637.7 105.3 656.3 104.7 675 103.8C693.7 103 712.3 102 731.2 103.2C750 104.3 769 107.7 787.8 107.8C806.7 108 825.3 105 844 102.5C862.7 100 881.3 98 890.7 97L900 96L900 121L890.7 121C881.3 121 862.7 121 844 121C825.3 121 806.7 121 787.8 121C769 121 750 121 731.2 121C712.3 121 693.7 121 675 121C656.3 121 637.7 121 619 121C600.3 121 581.7 121 562.8 121C544 121 525 121 506.2 121C487.3 121 468.7 121 450 121C431.3 121 412.7 121 394 121C375.3 121 356.7 121 337.8 121C319 121 300 121 281.2 121C262.3 121 243.7 121 225 121C206.3 121 187.7 121 169 121C150.3 121 131.7 121 112.8 121C94 121 75 121 56.2 121C37.3 121 18.7 121 9.3 121L0 121Z" fill="#14181c"></path></svg>
