<svg id="visual" viewBox="0 0 900 120" width="900" height="120" xmlns="http://www.w3.org/2000/svg" xmlns:xlink="http://www.w3.org/1999/xlink" version="1.1"><path d="M0 71L9.3 73.2C18.7 75.3 37.3 79.7 56.2 81.7C75 83.7 94 83.3 112.8 82C131.7 80.7 150.3 78.3 169 79.8C187.7 81.3 206.3 86.7 225 89.3C243.7 92 262.3 92 281.2 90.7C300 89.3 319 86.7 337.8 86.8C356.7 87 375.3 90 394 89.2C412.7 88.3 431.3 83.7 450 80.3C468.7 77 487.3 75 506.2 73.8C525 72.7 544 72.3 562.8 74C581.7 75.7 600.3 79.3 619 80.3C637.7 81.3 656.3 79.7 675 78.5C693.7 77.3 712.3 76.7 731.2 77C750 77.3 769 78.7 787.8 79C806.7 79.3 825.3 78.7 844 77.2C862.7 75.7 881.3 73.3 890.7 72.2L900 71L900 121L890.7 121C881.3 121 862.7 121 844 121C825.3 121 806.7 121 787.8 121C769 121 750 121 731.2 121C712.3 121 693.7 121 675 121C656.3 121 637.7 121 619 121C600.3 121 581.7 121 562.8 121C544 121 525 121 506.2 121C487.3 121 468.7 121 450 121C431.3 121 412.7 121 394 121C375.3 121 356.7 121 337.8 121C319 121 300 121 281.2 121C262.3 121 243.7 121 225 121C206.3 121 187.7 121 169 121C150.3 121 131.7 121 112.8 121C94 121 75 121 56.2 121C37.3 121 18.7 121 9.3 121L0 121Z" fill="#fa7268"></path><path d="M0 100L9.3 100.3C18.7 100.7 37.3 101.3 56.2 99.5C75 97.7 94 93.3 112.8 93.2C131.7 93 150.3 97 169 98.2C187.7 99.3 206.3 97.7 225 95.7C243.7 93.7 262.3 91.3 281.2 90.2C300 89 319 89 337.8 88.8C356.7 88.7 375.3 88.3 394 88.5C412.7 88.7 431.3 89.3 450 89.8C468.7 90.3 487.3 90.7 506.2 89.8C525 89 544 87 562.8 87.5C581.7 88 600.3 91 619 93.3C637.7 95.7 656.3 97.3 675 97.3C693.7 97.3 712.3 95.7 731.2 93.8C750 92 769 90 787.8 88.5C806.7 87 825.3 86 844 87.3C862.7 88.7 881.3 92.3 890.7 94.2L900 96L900 121L890.7 121C881.3 121 862.7 121 844 121C825.3 121 806.7 121 787.8 121C769 121 750 121 731.2 121C712.3 121 693.7 121 675 121C656.3 121 637.7 121 619 121C600.3 121 581.7 121 562.8 121C544 121 525 121 506.2 121C487.3 121 468.7 121 450 121C431.3 121 412.7 121 394 121C375.3 121 356.7 121 337.8 121C319 121 300 121 281.2 121C262.3 121 243.7 121 225 121C206.3 121 187.7 121 169 121C150.3 121 131.7 121 112.8 121C94 121 75 121 56.2 121C37.3 121 18.7 121 9.3 121L0 121Z" fill="#e34c67"></path><path d="M0 101L9.3 101.2C18.7 101.3 37.3 101.7 56.2 102.5C75 103.3 94 104.7 112.8 104.7C131.7 104.7 150.3 103.3 169 102C187.7 100.7 206.3 99.3 225 99.2C243.7 99 262.3 100 281.2 101.2C300 102.3 319 103.7 337.8 104.8C356.7 106 375.3 107 394 105.7C412.7 104.3 431.3 100.7 450 101C468.7 101.3 487.3 105.7 506.2 105.7C525 105.7 544 101.3 562.8 101.5C581.7 101.7 600.3 106.3 619 108.5C637.7 110.7 656.3 110.3 675 109C693.7 107.7 712.3 105.3 731.2 105.2C750 105 769 107 787.8 106.7C806.7 106.3 825.3 103.7 844 102.3C862.7 101 881.3 101 890.7 101L900 101L900 121L890.7 121C881.3 121 862.7 121 844 121C825.3 121 806.7 121 787.8 121C769 121 750 121 731.2 121C712.3 121 693.7 121 675 121C656.3 121 637.7 121 619 121C600.3 121 581.7 121 562.8 121C544 121 525 121 506.2 121C487.3 121 468.7 121 450 121C431.3 121 412.7 121 394 121C375.3 121 356.7 121 337.8 121C319 121 300 121 281.2 121C262.3 121 243.7 121 225 121C206.3 121 187.7 121 169 121C150.3 121 131.7 121 112.8 121C94 121 75 121 56.2 121C37.3 121 18.7 121 9.3 121L0 121Z" fill="#c62368"></path></svg>
